{"title":"Martha.Marcy.May.Marlene.2011.LIMITED.BRRip.XviD.Ac3.Feel-Free","uid":7011159,"size":876925363,"categoryP":"video","categoryS":"movies","magnet":"?xt=urn:btih:73a8f5d4672822cebec47fe78b7ece6fa2ada9b5&amp;dn=Martha.Marcy.May.Marlene.2011.LIMITED.BRRip.XviD.Ac3.Feel-Free&amp;tr=udp%3A%2F%2Ftracker.openbittorrent.com%3A80&amp;tr=udp%3A%2F%2Fopen.demonii.com%3A1337&amp;tr=udp%3A%2F%2Ftracker.coppersurfer.tk%3A6969&amp;tr=udp%3A%2F%2Fexodus.desync.com%3A6969","seeders":0,"leechers":1,"uploader":"elitecrusher","files":8,"time":1328462035,"description":"Genre:Drama | Thriller\nLanguage:English\nIMDb:http://www.imdb.com/title/tt1441326/\nSource:LIMITED 1080p BluRay x264-Counterfeit Thanks!\nEncoder:Tony\n\nFormat : AVI\nFormat/Info : Audio Video Interleave\nFile size : 835 MiB\nDuration : 1h 41mn\nOverall bit rate : 1 146 Kbps\n\nVideo\nID : 0\nFormat : MPEG-4 Visual\nFormat profile : Advanced Simple@L5\nFormat settings, BVOP : 1\nFormat settings, QPel : No\nFormat settings, GMC : No warppoints\nFormat settings, Matrix : Default (H.263)\nCodec ID : XVID\nCodec ID/Hint : XviD\nDuration : 1h 41mn\nBit rate : 689 Kbps\nWidth : 640 pixels\nHeight : 264 pixels\nDisplay aspect ratio : 2.40:1\nFrame rate : 23.976 fps\nColor space : YUV\nChroma subsampling : 4:2:0\nBit depth : 8 bits\nScan type : Progressive\nCompression mode : Lossy\nBits/(Pixel*Frame) : 0.170\nStream size : 502 MiB (60%)\nWriting library : XviD 1.2.1 (UTC 2008-12-04)\n\nAudio\nID : 1\nFormat : AC-3\nFormat/Info : Audio Coding 3\nMode extension : CM (complete main)\nCodec ID : 2000\nDuration : 1h 41mn\nBit rate mode : Constant\nBit rate : 448 Kbps\nChannel(s) : 6 channels\nChannel positions : Front: L C R, Side: L R, LFE\nSampling rate : 48.0 KHz\nBit depth : 16 bits\nCompression mode : Lossy\nStream size : 327 MiB (39%)\nAlignment : Aligned on interleaves\nInterleave, duration : 42 ms (1.00 video frame)\nInterleave, preload duration : 512 ms\n\n\nPlot:\nHaunted by painful memories and increasing paranoia, a damaged woman struggles to re-assimilate with her family after fleeing an abusive cult","torrent":{"xt":"urn:btih:73a8f5d4672822cebec47fe78b7ece6fa2ada9b5","amp;dn":"Martha.Marcy.May.Marlene.2011.LIMITED.BRRip.XviD.Ac3.Feel-Free","amp;tr":["udp%3A%2F%2Ftracker.openbittorrent.com%3A80","udp%3A%2F%2Fopen.demonii.com%3A1337","udp%3A%2F%2Ftracker.coppersurfer.tk%3A6969","udp%3A%2F%2Fexodus.desync.com%3A6969"],"infoHash":"73a8f5d4672822cebec47fe78b7ece6fa2ada9b5","infoHashBuffer":{"type":"Buffer","data":[115,168,245,212,103,40,34,206,190,196,127,231,139,126,206,111,162,173,169,181]},"announce":[],"urlList":[]}}